<svg width="316" height="19" viewBox="0 0 316 19" fill="none" xmlns="http://www.w3.org/2000/svg">
<g clip-path="url(#clip0_42_3)">
<path fill-rule="evenodd" clip-rule="evenodd" d="M10.7861 14.0083L5.01846 17.7876L6.83053 11.1344L1.45386 6.81689L8.34142 6.48431L10.7861 0.0366211L13.2308 6.48431L20.1183 6.81689L14.7417 11.1344L16.5537 17.7876L10.7861 14.0083Z" fill="#FFC54F"/>
</g>
<g clip-path="url(#clip1_42_3)">
<path fill-rule="evenodd" clip-rule="evenodd" d="M35.3948 14.0083L29.6272 17.7876L31.4392 11.1344L26.0626 6.81689L32.9501 6.48431L35.3948 0.0366211L37.8395 6.48431L44.727 6.81689L39.3504 11.1344L41.1624 17.7876L35.3948 14.0083Z" fill="#FFC54F"/>
</g>
<g clip-path="url(#clip2_42_3)">
<path fill-rule="evenodd" clip-rule="evenodd" d="M60.0035 14.0083L54.2359 17.7876L56.0479 11.1344L50.6713 6.81689L57.5588 6.48431L60.0035 0.0366211L62.4482 6.48431L69.3358 6.81689L63.9591 11.1344L65.7711 17.7876L60.0035 14.0083Z" fill="#FFC54F"/>
</g>
<g clip-path="url(#clip3_42_3)">
<path fill-rule="evenodd" clip-rule="evenodd" d="M84.6122 14.0083L78.8446 17.7876L80.6566 11.1344L75.28 6.81689L82.1675 6.48431L84.6122 0.0366211L87.0569 6.48431L93.9445 6.81689L88.5678 11.1344L90.3799 17.7876L84.6122 14.0083Z" fill="#FFC54F"/>
</g>
<g clip-path="url(#clip4_42_3)">
<path fill-rule="evenodd" clip-rule="evenodd" d="M109.221 14.0083L103.453 17.7876L105.265 11.1344L99.8887 6.81689L106.776 6.48431L109.221 0.0366211L111.666 6.48431L118.553 6.81689L113.177 11.1344L114.989 17.7876L109.221 14.0083Z" fill="#FFC54F"/>
</g>
<defs>
<clipPath id="clip0_42_3">
<rect width="19.625" height="17.9896" fill="white" transform="translate(0.973572 0.0366211)"/>
</clipPath>
<clipPath id="clip1_42_3">
<rect width="19.625" height="17.9896" fill="white" transform="translate(25.5823 0.0366211)"/>
</clipPath>
<clipPath id="clip2_42_3">
<rect width="19.625" height="17.9896" fill="white" transform="translate(50.191 0.0366211)"/>
</clipPath>
<clipPath id="clip3_42_3">
<rect width="19.625" height="17.9896" fill="white" transform="translate(74.7997 0.0366211)"/>
</clipPath>
<clipPath id="clip4_42_3">
<rect width="19.625" height="17.9896" fill="white" transform="translate(99.4084 0.0366211)"/>
</clipPath>
</defs>
</svg>
