<svg width="76" height="76" viewBox="0 0 76 76" fill="none" xmlns="http://www.w3.org/2000/svg">
<g clip-path="url(#clip0_1_228)">
<g clip-path="url(#clip1_1_228)">
<path opacity="0.06" d="M54.9959 0H21.2199C9.67228 0 0.311035 9.36124 0.311035 20.9089V54.6848C0.311035 66.2325 9.67228 75.5938 21.2199 75.5938H54.9959C66.5435 75.5938 75.9048 66.2325 75.9048 54.6848V20.9089C75.9048 9.36124 66.5435 0 54.9959 0Z" fill="#0089FF"/>
<path d="M38.108 63.5374C52.324 63.5374 63.8483 52.0131 63.8483 37.797C63.8483 23.581 52.324 12.0566 38.108 12.0566C23.8919 12.0566 12.3676 23.581 12.3676 37.797C12.3676 52.0131 23.8919 63.5374 38.108 63.5374Z" fill="#1B76FF"/>
<path fill-rule="evenodd" clip-rule="evenodd" d="M24.6981 32.7031H29.3439V50.8643H24.6981C23.9986 50.8643 23.4315 50.3242 23.4315 49.658V33.9094C23.4315 33.2432 23.9986 32.7031 24.6981 32.7031Z" stroke="white" stroke-width="1.60838" stroke-linecap="round" stroke-linejoin="round"/>
<path fill-rule="evenodd" clip-rule="evenodd" d="M51.3719 47.4639C51.0778 49.7274 49.5655 50.8641 46.877 50.8641H32.8094C30.8981 50.8641 29.3439 49.4012 29.3439 47.6023V32.7248C33.8051 32.2899 36.0357 30.7325 36.0357 26.5446V24.5378C36.0357 22.4225 37.8362 20.7078 40.0572 20.7078C40.9036 20.7078 41.7284 20.962 42.4142 21.4345C43.3594 22.0869 43.9616 23.3224 43.9616 25.1015V30.9108C43.9616 31.4049 44.7981 31.8102 45.6346 31.8102H50.1221C52.0125 31.8102 53.5458 33.2335 53.5878 35.0028C53.6158 36.1823 52.8772 39.8334 51.3719 47.4639Z" stroke="white" stroke-width="1.60838" stroke-linecap="round" stroke-linejoin="round"/>
</g>
</g>
<defs>
<clipPath id="clip0_1_228">
<rect width="75.5938" height="75.5938" fill="white" transform="translate(0.311035)"/>
</clipPath>
<clipPath id="clip1_1_228">
<rect width="75.5938" height="75.5938" fill="white" transform="translate(0.311035)"/>
</clipPath>
</defs>
</svg>
