<svg width="77" height="76" viewBox="0 0 77 76" fill="none" xmlns="http://www.w3.org/2000/svg">
<g clip-path="url(#clip0_1_243)">
<path opacity="0.06" d="M55.391 0H21.6151C10.0674 0 0.706177 9.36124 0.706177 20.9089V54.6848C0.706177 66.2325 10.0674 75.5938 21.6151 75.5938H55.391C66.9387 75.5938 76.2999 66.2325 76.2999 54.6848V20.9089C76.2999 9.36124 66.9387 0 55.391 0Z" fill="#FF6F35"/>
<path d="M38.5031 63.5374C52.7191 63.5374 64.2435 52.0131 64.2435 37.797C64.2435 23.581 52.7191 12.0566 38.5031 12.0566C24.287 12.0566 12.7627 23.581 12.7627 37.797C12.7627 52.0131 24.287 63.5374 38.5031 63.5374Z" fill="#FFCD1D"/>
<path d="M38.5031 21.5791V54.0148" stroke="white" stroke-width="2.41257" stroke-linecap="round" stroke-linejoin="round"/>
<path d="M45.8748 27.4766H34.8172C33.4487 27.4766 32.1361 28.0202 31.1684 28.988C30.2006 29.9556 29.657 31.2682 29.657 32.6367C29.657 34.0053 30.2006 35.3178 31.1684 36.2856C32.1361 37.2532 33.4487 37.797 34.8172 37.797H42.1889C43.5575 37.797 44.87 38.3406 45.8377 39.3084C46.8055 40.276 47.3491 41.5885 47.3491 42.9572C47.3491 44.3258 46.8055 45.6383 45.8377 46.606C44.87 47.5737 43.5575 48.1174 42.1889 48.1174H29.657" stroke="white" stroke-width="2.41257" stroke-linecap="round" stroke-linejoin="round"/>
</g>
<defs>
<clipPath id="clip0_1_243">
<rect width="75.5938" height="75.5938" fill="white" transform="translate(0.706177)"/>
</clipPath>
</defs>
</svg>
