<svg width="77" height="77" viewBox="0 0 77 77" fill="none" xmlns="http://www.w3.org/2000/svg">
<g clip-path="url(#clip0_1_253)">
<g clip-path="url(#clip1_1_253)">
<path opacity="0.06" d="M55.391 0.59375H21.6151C10.0674 0.59375 0.706177 9.95499 0.706177 21.5027V55.2786C0.706177 66.8263 10.0674 76.1875 21.6151 76.1875H55.391C66.9387 76.1875 76.2999 66.8263 76.2999 55.2786V21.5027C76.2999 9.95499 66.9387 0.59375 55.391 0.59375Z" fill="#5CC97B"/>
<path d="M38.5031 64.1312C52.7191 64.1312 64.2435 52.6068 64.2435 38.3908C64.2435 24.1747 52.7191 12.6504 38.5031 12.6504C24.287 12.6504 12.7627 24.1747 12.7627 38.3908C12.7627 52.6068 24.287 64.1312 38.5031 64.1312Z" fill="#5CC97B"/>
<path fill-rule="evenodd" clip-rule="evenodd" d="M41.2601 44.7636C39.4171 45.9823 37.1874 46.6533 34.8116 46.5551C28.8024 46.307 24.132 41.2339 24.3802 35.2245C24.6283 29.2151 29.7012 24.5455 35.7103 24.7936C41.7185 25.0417 46.3899 30.1138 46.1418 36.1233C46.0543 38.2416 45.3672 40.1935 44.2509 41.8223L51.5875 48.9458C52.4927 49.9273 52.4603 51.4443 51.5302 52.3843L51.4875 52.4236L51.4423 52.4628C50.4313 53.3123 48.9167 53.2212 48.0124 52.239L41.2601 44.7636ZM34.9153 44.0434C30.2931 43.8525 26.7003 39.9501 26.8912 35.3279C27.0821 30.7056 30.9844 27.1128 35.6067 27.3037C40.2289 27.4947 43.8218 31.397 43.6308 36.0192C43.4399 40.6415 39.5375 44.2343 34.9153 44.0434Z" fill="white"/>
</g>
</g>
<defs>
<clipPath id="clip0_1_253">
<rect width="75.5938" height="75.5938" fill="white" transform="translate(0.706177 0.59375)"/>
</clipPath>
<clipPath id="clip1_1_253">
<rect width="75.5938" height="75.5938" fill="white" transform="translate(0.706177 0.59375)"/>
</clipPath>
</defs>
</svg>
