<svg width="123" height="123" viewBox="0 0 123 123" fill="none" xmlns="http://www.w3.org/2000/svg">
<rect x="0.83313" y="0.484375" width="9.99339" height="10" rx="4.99669" fill="#81818B" fill-opacity="0.2"/>
<rect x="16.8225" y="0.484375" width="9.99339" height="10" rx="4.99669" fill="#81818B" fill-opacity="0.2"/>
<rect x="32.812" y="0.484375" width="9.99339" height="10" rx="4.99669" fill="#81818B" fill-opacity="0.2"/>
<rect x="48.8014" y="0.484375" width="9.99339" height="10" rx="4.99669" fill="#81818B" fill-opacity="0.2"/>
<rect x="64.7908" y="0.484375" width="9.99339" height="10" rx="4.99669" fill="#81818B" fill-opacity="0.2"/>
<rect x="80.7802" y="0.484375" width="9.99339" height="10" rx="4.99669" fill="#81818B" fill-opacity="0.2"/>
<rect x="96.7697" y="0.484375" width="9.99339" height="10" rx="4.99669" fill="#81818B" fill-opacity="0.2"/>
<rect x="112.759" y="0.484375" width="9.99339" height="10" rx="4.99669" fill="#81818B" fill-opacity="0.2"/>
<rect x="0.83313" y="16.4844" width="9.99339" height="10" rx="4.99669" fill="#81818B" fill-opacity="0.2"/>
<rect x="16.8225" y="16.4844" width="9.99339" height="10" rx="4.99669" fill="#81818B" fill-opacity="0.2"/>
<rect x="32.812" y="16.4844" width="9.99339" height="10" rx="4.99669" fill="#81818B" fill-opacity="0.2"/>
<rect x="48.8014" y="16.4844" width="9.99339" height="10" rx="4.99669" fill="#81818B" fill-opacity="0.2"/>
<rect x="64.7908" y="16.4844" width="9.99339" height="10" rx="4.99669" fill="#81818B" fill-opacity="0.2"/>
<rect x="80.7802" y="16.4844" width="9.99339" height="10" rx="4.99669" fill="#81818B" fill-opacity="0.2"/>
<rect x="96.7697" y="16.4844" width="9.99339" height="10" rx="4.99669" fill="#81818B" fill-opacity="0.2"/>
<rect x="112.759" y="16.4844" width="9.99339" height="10" rx="4.99669" fill="#81818B" fill-opacity="0.2"/>
<rect x="0.83313" y="32.4844" width="9.99339" height="10" rx="4.99669" fill="#81818B" fill-opacity="0.2"/>
<rect x="16.8225" y="32.4844" width="9.99339" height="10" rx="4.99669" fill="#81818B" fill-opacity="0.2"/>
<rect x="32.812" y="32.4844" width="9.99339" height="10" rx="4.99669" fill="#81818B" fill-opacity="0.2"/>
<rect x="48.8014" y="32.4844" width="9.99339" height="10" rx="4.99669" fill="#81818B" fill-opacity="0.2"/>
<rect x="64.7908" y="32.4844" width="9.99339" height="10" rx="4.99669" fill="#81818B" fill-opacity="0.2"/>
<rect x="80.7802" y="32.4844" width="9.99339" height="10" rx="4.99669" fill="#81818B" fill-opacity="0.2"/>
<rect x="96.7697" y="32.4844" width="9.99339" height="10" rx="4.99669" fill="#81818B" fill-opacity="0.2"/>
<rect x="112.759" y="32.4844" width="9.99339" height="10" rx="4.99669" fill="#81818B" fill-opacity="0.2"/>
<rect x="0.83313" y="48.4844" width="9.99339" height="10" rx="4.99669" fill="#81818B" fill-opacity="0.2"/>
<rect x="16.8225" y="48.4844" width="9.99339" height="10" rx="4.99669" fill="#81818B" fill-opacity="0.2"/>
<rect x="32.812" y="48.4844" width="9.99339" height="10" rx="4.99669" fill="#81818B" fill-opacity="0.2"/>
<rect x="48.8014" y="48.4844" width="9.99339" height="10" rx="4.99669" fill="#81818B" fill-opacity="0.2"/>
<rect x="64.7908" y="48.4844" width="9.99339" height="10" rx="4.99669" fill="#81818B" fill-opacity="0.2"/>
<rect x="80.7802" y="48.4844" width="9.99339" height="10" rx="4.99669" fill="#81818B" fill-opacity="0.2"/>
<rect x="96.7697" y="48.4844" width="9.99339" height="10" rx="4.99669" fill="#81818B" fill-opacity="0.2"/>
<rect x="112.759" y="48.4844" width="9.99339" height="10" rx="4.99669" fill="#81818B" fill-opacity="0.2"/>
<rect x="0.83313" y="64.4844" width="9.99339" height="10" rx="4.99669" fill="#81818B" fill-opacity="0.2"/>
<rect x="16.8225" y="64.4844" width="9.99339" height="10" rx="4.99669" fill="#81818B" fill-opacity="0.2"/>
<rect x="32.812" y="64.4844" width="9.99339" height="10" rx="4.99669" fill="#81818B" fill-opacity="0.2"/>
<rect x="48.8014" y="64.4844" width="9.99339" height="10" rx="4.99669" fill="#81818B" fill-opacity="0.2"/>
<rect x="64.7908" y="64.4844" width="9.99339" height="10" rx="4.99669" fill="#81818B" fill-opacity="0.2"/>
<rect x="80.7802" y="64.4844" width="9.99339" height="10" rx="4.99669" fill="#81818B" fill-opacity="0.2"/>
<rect x="96.7697" y="64.4844" width="9.99339" height="10" rx="4.99669" fill="#81818B" fill-opacity="0.2"/>
<rect x="112.759" y="64.4844" width="9.99339" height="10" rx="4.99669" fill="#81818B" fill-opacity="0.2"/>
<rect x="0.83313" y="80.4844" width="9.99339" height="10" rx="4.99669" fill="#81818B" fill-opacity="0.2"/>
<rect x="16.8225" y="80.4844" width="9.99339" height="10" rx="4.99669" fill="#81818B" fill-opacity="0.2"/>
<rect x="32.812" y="80.4844" width="9.99339" height="10" rx="4.99669" fill="#81818B" fill-opacity="0.2"/>
<rect x="48.8014" y="80.4844" width="9.99339" height="10" rx="4.99669" fill="#81818B" fill-opacity="0.2"/>
<rect x="64.7908" y="80.4844" width="9.99339" height="10" rx="4.99669" fill="#81818B" fill-opacity="0.2"/>
<rect x="80.7802" y="80.4844" width="9.99339" height="10" rx="4.99669" fill="#81818B" fill-opacity="0.2"/>
<rect x="96.7697" y="80.4844" width="9.99339" height="10" rx="4.99669" fill="#81818B" fill-opacity="0.2"/>
<rect x="112.759" y="80.4844" width="9.99339" height="10" rx="4.99669" fill="#81818B" fill-opacity="0.2"/>
<rect x="0.83313" y="96.4844" width="9.99339" height="10" rx="4.99669" fill="#81818B" fill-opacity="0.2"/>
<rect x="16.8225" y="96.4844" width="9.99339" height="10" rx="4.99669" fill="#81818B" fill-opacity="0.2"/>
<rect x="32.812" y="96.4844" width="9.99339" height="10" rx="4.99669" fill="#81818B" fill-opacity="0.2"/>
<rect x="48.8014" y="96.4844" width="9.99339" height="10" rx="4.99669" fill="#81818B" fill-opacity="0.2"/>
<rect x="64.7908" y="96.4844" width="9.99339" height="10" rx="4.99669" fill="#81818B" fill-opacity="0.2"/>
<rect x="80.7802" y="96.4844" width="9.99339" height="10" rx="4.99669" fill="#81818B" fill-opacity="0.2"/>
<rect x="96.7697" y="96.4844" width="9.99339" height="10" rx="4.99669" fill="#81818B" fill-opacity="0.2"/>
<rect x="112.759" y="96.4844" width="9.99339" height="10" rx="4.99669" fill="#81818B" fill-opacity="0.2"/>
<rect x="0.83313" y="112.484" width="9.99339" height="10" rx="4.99669" fill="#81818B" fill-opacity="0.2"/>
<rect x="16.8225" y="112.484" width="9.99339" height="10" rx="4.99669" fill="#81818B" fill-opacity="0.2"/>
<rect x="32.812" y="112.484" width="9.99339" height="10" rx="4.99669" fill="#81818B" fill-opacity="0.2"/>
<rect x="48.8014" y="112.484" width="9.99339" height="10" rx="4.99669" fill="#81818B" fill-opacity="0.2"/>
<rect x="64.7908" y="112.484" width="9.99339" height="10" rx="4.99669" fill="#81818B" fill-opacity="0.2"/>
<rect x="80.7802" y="112.484" width="9.99339" height="10" rx="4.99669" fill="#81818B" fill-opacity="0.2"/>
<rect x="96.7697" y="112.484" width="9.99339" height="10" rx="4.99669" fill="#81818B" fill-opacity="0.2"/>
<rect x="112.759" y="112.484" width="9.99339" height="10" rx="4.99669" fill="#81818B" fill-opacity="0.2"/>
</svg>
