<svg width="211" height="65" viewBox="0 0 211 65" fill="none" xmlns="http://www.w3.org/2000/svg">
<path d="M29.7989 28.2956C31.9531 26.3337 34.8782 25.1886 37.8428 25.0462C38.8575 25.0462 39.8751 25.0519 40.8898 25.0432C40.838 26.0809 40.8898 27.1214 40.8593 28.159C40.7161 30.4784 39.8172 32.7454 38.3029 34.5649C36.3346 37.0122 33.3242 38.6543 30.128 39.0787C28.7325 39.2938 27.3156 39.1572 25.911 39.195C25.9354 38.0527 25.8592 36.9076 25.9537 35.7682C26.2279 32.9431 27.6265 30.2371 29.7989 28.2956Z" fill="#81818B"/>
<path d="M41.8293 25.0432C42.9171 25.0549 44.0049 25.0374 45.0957 25.049C47.8105 25.2321 50.4888 26.2261 52.5331 27.9498C54.7878 29.7954 56.3329 32.4345 56.7287 35.2538C56.9025 36.5617 56.7928 37.8841 56.86 39.1978C55.9092 39.195 54.9616 39.1921 54.0108 39.1978C51.674 39.1368 49.3766 38.416 47.4205 37.2011C46.5186 36.5849 45.5923 35.9601 44.9159 35.1055C43.4321 33.5244 42.4235 31.5392 42.0427 29.4466C41.7562 27.9933 41.872 26.511 41.8293 25.0432Z" fill="#81818B"/>
<path d="M25.9131 40.0291C26.8789 40.0813 27.8479 39.9854 28.8107 40.0872C32.9332 40.1714 36.9339 42.3804 39.0697 45.7432C40.2946 47.6266 40.9527 49.8589 40.8675 52.0763C40.8644 52.8035 40.8766 53.5269 40.8552 54.2509C39.3257 54.2068 37.7809 54.326 36.2665 54.044C32.9027 53.5038 29.8101 51.5939 27.9484 48.8677C26.5376 46.8854 25.8338 44.4644 25.907 42.0723C25.907 41.3892 25.907 40.7091 25.9131 40.0291Z" fill="#81818B"/>
<path d="M51.7117 40.337C53.3693 39.9853 55.0781 40.0434 56.7634 40.0434L56.8369 40.1132C56.8001 41.6333 56.9251 43.1708 56.6054 44.6735C55.9318 48.045 53.5919 51.0559 50.4442 52.7097C48.485 53.7506 46.2364 54.2619 43.9969 54.2388C43.2809 54.242 42.5618 54.2273 41.8458 54.2472C41.8458 52.9888 41.7909 51.7248 41.9402 50.4717C42.2876 47.4404 44.0061 44.6182 46.4771 42.7116C48.0067 41.5606 49.8044 40.7265 51.7117 40.337Z" fill="#81818B"/>
<path d="M69.345 48.621C69.345 49.1327 69.1591 49.5655 68.7885 49.9199C68.4372 50.2546 67.9936 50.4219 67.4576 50.4219C66.9415 50.4219 66.5084 50.2546 66.1577 49.9199C65.807 49.5655 65.6317 49.1327 65.6317 48.621V30.3774C65.6317 29.8657 65.807 29.4426 66.1577 29.1081C66.5289 28.7538 66.983 28.5767 67.5196 28.5767C68.0556 28.5767 68.4887 28.7538 68.8189 29.1081C69.1696 29.4426 69.345 29.8657 69.345 30.3774V48.621Z" fill="#81818B"/>
<path d="M84.2508 34.6284C84.7868 34.6284 85.2304 34.8055 85.5816 35.1598C85.9318 35.4943 86.1072 35.9174 86.1072 36.4291V43.9273C86.1072 46.0134 85.4987 47.6665 84.2817 48.8867C83.0643 50.1069 81.3108 50.7168 79.0202 50.7168C76.7307 50.7168 74.9767 50.1069 73.7597 48.8867C72.5632 47.6665 71.9647 46.0134 71.9647 43.9273V36.4291C71.9647 35.9174 72.1401 35.4943 72.4908 35.1598C72.8415 34.8055 73.2851 34.6284 73.8216 34.6284C74.3582 34.6284 74.8013 34.8055 75.152 35.1598C75.5032 35.4943 75.6786 35.9174 75.6786 36.4291V43.9273C75.6786 45.1278 75.9574 46.0232 76.5139 46.6136C77.0709 47.1844 77.9067 47.4697 79.0202 47.4697C80.1558 47.4697 81.001 47.1844 81.5586 46.6136C82.1151 46.0232 82.3939 45.1278 82.3939 43.9273V36.4291C82.3939 35.9174 82.5692 35.4943 82.9199 35.1598C83.2706 34.8055 83.7142 34.6284 84.2508 34.6284Z" fill="#81818B"/>
<path d="M97.2765 34.3333C98.9271 34.3333 100.144 34.717 100.928 35.4845C101.712 36.2324 102.228 37.2065 102.476 38.407L101.95 38.1413L102.197 37.669C102.445 37.2163 102.826 36.7342 103.342 36.2225C103.858 35.6912 104.477 35.2484 105.199 34.8941C105.942 34.5202 106.767 34.3333 107.675 34.3333C109.16 34.3333 110.284 34.6383 111.048 35.2483C111.832 35.8584 112.368 36.6752 112.657 37.6986C112.946 38.7022 113.091 39.824 113.091 41.0639V48.6211C113.091 49.1328 112.915 49.5656 112.564 49.92C112.213 50.2547 111.77 50.422 111.234 50.422C110.698 50.422 110.253 50.2547 109.903 49.92C109.552 49.5656 109.377 49.1328 109.377 48.6211V41.0639C109.377 40.4144 109.294 39.8339 109.129 39.3221C108.964 38.7908 108.665 38.3677 108.232 38.0528C107.799 37.7379 107.18 37.5804 106.375 37.5804C105.591 37.5804 104.921 37.7379 104.364 38.0528C103.806 38.3677 103.383 38.7908 103.095 39.3221C102.826 39.8339 102.692 40.4144 102.692 41.0639V48.6211C102.692 49.1328 102.517 49.5656 102.166 49.92C101.816 50.2547 101.372 50.422 100.836 50.422C100.299 50.422 99.8553 50.2547 99.5052 49.92C99.1539 49.5656 98.9786 49.1328 98.9786 48.6211V41.0639C98.9786 40.4144 98.8962 39.8339 98.7308 39.3221C98.5659 38.7908 98.2667 38.3677 97.8336 38.0528C97.4004 37.7379 96.7809 37.5804 95.9766 37.5804C95.1928 37.5804 94.5224 37.7379 93.9648 38.0528C93.4083 38.3677 92.9852 38.7908 92.6964 39.3221C92.4282 39.8339 92.2943 40.4144 92.2943 41.0639V48.6211C92.2943 49.1328 92.1189 49.5656 91.7682 49.92C91.417 50.2547 90.9739 50.422 90.4374 50.422C89.9008 50.422 89.4577 50.2547 89.1065 49.92C88.7558 49.5656 88.5804 49.1328 88.5804 48.6211V36.4292C88.5804 35.9175 88.7558 35.4943 89.1065 35.1598C89.4577 34.8055 89.9008 34.6285 90.4374 34.6285C90.9739 34.6285 91.417 34.8055 91.7682 35.1598C92.1189 35.4943 92.2943 35.9175 92.2943 36.4292V37.6986L91.8297 37.61C92.0155 37.2754 92.2738 36.9211 92.6035 36.5472C92.9337 36.1536 93.3359 35.7895 93.8105 35.455C94.2851 35.1204 94.8111 34.8547 95.3886 34.6579C95.9667 34.4415 96.5961 34.3333 97.2765 34.3333Z" fill="#81818B"/>
<path d="M119.059 48.621C119.059 49.1327 118.884 49.5655 118.533 49.9199C118.183 50.2545 117.739 50.4219 117.202 50.4219C116.666 50.4219 116.222 50.2545 115.872 49.9199C115.521 49.5655 115.346 49.1327 115.346 48.621V36.429C115.346 35.9174 115.521 35.4942 115.872 35.1597C116.222 34.8054 116.666 34.6283 117.202 34.6283C117.739 34.6283 118.183 34.8054 118.533 35.1597C118.884 35.4942 119.059 35.9174 119.059 36.429V48.621ZM117.171 32.7095C116.47 32.7095 115.975 32.6013 115.686 32.3848C115.397 32.1683 115.253 31.7845 115.253 31.2335V30.6726C115.253 30.1019 115.408 29.7181 115.717 29.5213C116.047 29.3048 116.543 29.1965 117.202 29.1965C117.925 29.1965 118.43 29.3048 118.719 29.5213C119.008 29.7378 119.152 30.1215 119.152 30.6726V31.2335C119.152 31.8042 118.997 32.1978 118.688 32.4143C118.379 32.6111 117.873 32.7095 117.171 32.7095Z" fill="#81818B"/>
<path d="M130.179 34.3333C131.706 34.3333 132.862 34.6383 133.645 35.2483C134.45 35.8584 134.997 36.6752 135.285 37.6986C135.595 38.7022 135.75 39.824 135.75 41.0639V48.6211C135.75 49.1328 135.574 49.5656 135.224 49.92C134.873 50.2547 134.429 50.422 133.893 50.422C133.357 50.422 132.913 50.2547 132.562 49.92C132.211 49.5656 132.036 49.1328 132.036 48.6211V41.0639C132.036 40.4144 131.943 39.8339 131.758 39.3221C131.593 38.7908 131.283 38.3677 130.829 38.0528C130.376 37.7379 129.725 37.5804 128.879 37.5804C128.054 37.5804 127.353 37.7379 126.775 38.0528C126.218 38.3677 125.785 38.7908 125.475 39.3221C125.187 39.8339 125.042 40.4144 125.042 41.0639V48.6211C125.042 49.1328 124.867 49.5656 124.516 49.92C124.165 50.2547 123.721 50.422 123.185 50.422C122.649 50.422 122.205 50.2547 121.855 49.92C121.504 49.5656 121.328 49.1328 121.328 48.6211V36.4292C121.328 35.9175 121.504 35.4943 121.855 35.1598C122.205 34.8055 122.649 34.6285 123.185 34.6285C123.721 34.6285 124.165 34.8055 124.516 35.1598C124.867 35.4943 125.042 35.9175 125.042 36.4292V37.6986L124.578 37.61C124.764 37.2754 125.032 36.9211 125.382 36.5472C125.733 36.1536 126.146 35.7895 126.62 35.455C127.095 35.1204 127.632 34.8547 128.229 34.6579C128.828 34.4415 129.478 34.3333 130.179 34.3333Z" fill="#81818B"/>
<path d="M154.123 42.5398C154.123 44.1536 153.741 45.5805 152.978 46.8203C152.235 48.0405 151.224 48.995 149.945 49.6837C148.687 50.3728 147.273 50.7168 145.706 50.7168C144.138 50.7168 142.714 50.3728 141.435 49.6837C140.176 48.995 139.166 48.0405 138.402 46.8203C137.66 45.5805 137.288 44.1536 137.288 42.5398C137.288 40.9261 137.66 39.5091 138.402 38.2889C139.166 37.0491 140.176 36.0848 141.435 35.396C142.714 34.6875 144.138 34.3333 145.706 34.3333C147.273 34.3333 148.687 34.6875 149.945 35.396C151.224 36.0848 152.235 37.0491 152.978 38.2889C153.741 39.5091 154.123 40.9261 154.123 42.5398ZM150.41 42.5398C150.41 41.5362 150.193 40.6703 149.759 39.9421C149.347 39.1942 148.78 38.6137 148.057 38.2004C147.356 37.7871 146.572 37.5804 145.706 37.5804C144.839 37.5804 144.045 37.7871 143.323 38.2004C142.621 38.6137 142.053 39.1942 141.621 39.9421C141.208 40.6703 141.001 41.5362 141.001 42.5398C141.001 43.5239 141.208 44.3898 141.621 45.1377C142.053 45.8658 142.621 46.4365 143.323 46.8498C144.045 47.2632 144.839 47.4697 145.706 47.4697C146.572 47.4697 147.356 47.2632 148.057 46.8498C148.78 46.4365 149.347 45.8658 149.759 45.1377C150.193 44.3898 150.41 43.5239 150.41 42.5398Z" fill="#81818B"/>
<path d="M167.964 34.6284C168.501 34.6284 168.944 34.8055 169.295 35.1598C169.646 35.4943 169.821 35.9174 169.821 36.4291V43.9273C169.821 46.0134 169.213 47.6665 167.995 48.8867C166.778 50.1069 165.025 50.7168 162.734 50.7168C160.444 50.7168 158.691 50.1069 157.473 48.8867C156.277 47.6665 155.678 46.0134 155.678 43.9273V36.4291C155.678 35.9174 155.853 35.4943 156.205 35.1598C156.555 34.8055 156.998 34.6284 157.535 34.6284C158.072 34.6284 158.515 34.8055 158.866 35.1598C159.217 35.4943 159.392 35.9174 159.392 36.4291V43.9273C159.392 45.1278 159.67 46.0232 160.228 46.6136C160.785 47.1844 161.62 47.4697 162.734 47.4697C163.869 47.4697 164.715 47.1844 165.271 46.6136C165.829 46.0232 166.108 45.1278 166.108 43.9273V36.4291C166.108 35.9174 166.283 35.4943 166.633 35.1598C166.984 34.8055 167.428 34.6284 167.964 34.6284Z" fill="#81818B"/>
<path d="M171.335 47.9716C171.128 47.6961 171.035 47.3419 171.056 46.9089C171.077 46.4759 171.345 46.102 171.861 45.7871C172.191 45.5903 172.542 45.5116 172.913 45.551C173.284 45.5707 173.645 45.7477 173.996 46.0823C174.595 46.653 175.224 47.0958 175.884 47.4107C176.544 47.7256 177.37 47.883 178.36 47.883C178.669 47.8633 179.009 47.824 179.381 47.765C179.752 47.6863 180.072 47.5288 180.34 47.2927C180.629 47.0368 180.774 46.653 180.774 46.1413C180.774 45.7084 180.619 45.364 180.309 45.1081C180 44.8523 179.587 44.6359 179.071 44.4587C178.576 44.2816 178.019 44.1143 177.4 43.9569C176.761 43.7797 176.1 43.583 175.42 43.3665C174.759 43.15 174.151 42.8745 173.594 42.5398C173.037 42.1856 172.583 41.7232 172.232 41.1524C171.882 40.5817 171.706 39.8633 171.706 38.9975C171.706 38.0134 171.995 37.177 172.573 36.4882C173.151 35.7994 173.893 35.2681 174.801 34.8941C175.729 34.5202 176.699 34.3333 177.71 34.3333C178.349 34.3333 179.02 34.4119 179.721 34.5694C180.422 34.7072 181.093 34.9433 181.733 35.2779C182.372 35.5927 182.909 36.0159 183.342 36.5472C183.569 36.8424 183.703 37.1967 183.745 37.61C183.786 38.0233 183.59 38.3972 183.156 38.7318C182.847 38.9679 182.486 39.0762 182.073 39.0565C181.661 39.0171 181.32 38.8794 181.052 38.6432C180.701 38.2102 180.227 37.8658 179.629 37.61C179.051 37.3542 178.38 37.2262 177.617 37.2262C177.308 37.2262 176.967 37.2656 176.596 37.3443C176.245 37.4033 175.936 37.551 175.667 37.7871C175.399 38.0036 175.265 38.3578 175.265 38.8498C175.265 39.3025 175.42 39.6666 175.729 39.9421C176.039 40.1979 176.451 40.4144 176.967 40.5916C177.503 40.749 178.071 40.9065 178.669 41.0639C179.288 41.2213 179.917 41.4083 180.557 41.6247C181.197 41.8413 181.784 42.1266 182.321 42.4808C182.857 42.8351 183.29 43.2976 183.621 43.8683C183.951 44.4193 184.116 45.1278 184.116 45.9938C184.116 46.9975 183.807 47.8536 183.187 48.562C182.569 49.2706 181.795 49.8117 180.867 50.1857C179.938 50.5401 178.989 50.7168 178.019 50.7168C176.802 50.7168 175.585 50.5204 174.368 50.1267C173.151 49.7132 172.139 48.995 171.335 47.9716Z" fill="#81818B"/>
</svg>
