<svg width="211" height="65" viewBox="0 0 211 65" fill="none" xmlns="http://www.w3.org/2000/svg">
<path d="M23.0972 45.3943L34.7567 40.3411L41.4678 44.1308L42.8235 56.564L34.5534 56.4979L35.7736 47.8539L34.35 47.0561L27.3678 52.3753L23.0972 45.3943Z" fill="#81818B"/>
<path d="M42.2139 43.5985L52.5178 50.9783L56.5849 43.8645L48.3146 40.6066V39.0109L56.5849 35.6866L52.5178 28.6389L42.2139 36.019V43.5985Z" fill="#81818B"/>
<path d="M41.4678 35.4209L42.8235 22.9878L34.5534 23.1208L35.7736 31.7641L34.35 32.5619L27.3 27.243L23.0972 34.1576L34.7567 39.2107L41.4678 35.4209Z" fill="#81818B"/>
<path d="M84.1757 38.2859V49.9341H88.6267V35.0896H82.145V38.2859H84.1757Z" fill="#81818B"/>
<path d="M84.0366 33.0038C84.4445 33.4191 85.0661 33.6267 85.9004 33.6267C86.7356 33.6267 87.3473 33.4191 87.7363 33.0038C88.1447 32.5702 88.3484 32.0284 88.3484 31.3785C88.3484 30.7102 88.1447 30.1685 87.7363 29.7532C87.3473 29.3198 86.7356 29.103 85.9004 29.103C85.0661 29.103 84.4445 29.3198 84.0366 29.7532C83.6476 30.1685 83.4528 30.7102 83.4528 31.3785C83.4528 32.0284 83.6476 32.5702 84.0366 33.0038Z" fill="#81818B"/>
<path d="M68.6809 49.6088C69.9419 50.1686 71.4902 50.4487 73.3261 50.4487C75.0512 50.4487 76.5344 50.1865 77.7776 49.663C79.0202 49.1395 79.9752 48.4079 80.6425 47.4687C81.3292 46.5116 81.672 45.4011 81.672 44.1369C81.672 42.909 81.3481 41.8706 80.6987 41.0218C80.0676 40.155 79.1872 39.4778 78.0558 38.9903C76.9244 38.4845 75.6167 38.1685 74.133 38.0423L72.5753 37.9068C71.6482 37.8344 70.9804 37.5908 70.5725 37.1753C70.164 36.76 69.9603 36.2723 69.9603 35.7127C69.9603 35.2791 70.0721 34.8819 70.2937 34.5207C70.5168 34.1415 70.8502 33.8435 71.2954 33.6268C71.7595 33.4102 72.3249 33.3018 72.9927 33.3018C73.6973 33.3018 74.2816 33.4281 74.7452 33.6811C74.847 33.7345 74.9441 33.7916 75.035 33.8523L75.057 33.8673C75.0911 33.8902 75.1247 33.914 75.1573 33.938C75.4392 34.1476 75.6634 34.396 75.8303 34.6833C76.0708 35.0806 76.1921 35.5229 76.1921 36.0106H80.6425C80.6425 34.7103 80.3364 33.5816 79.7248 32.6246C79.1132 31.6494 78.2322 30.9 77.0825 30.3761C75.9506 29.8344 74.5877 29.5635 72.9927 29.5635C71.4718 29.5635 70.1551 29.8165 69.0421 30.322C67.9296 30.8097 67.0581 31.514 66.4276 32.4348C65.8149 33.3559 65.5088 34.4485 65.5088 35.7127C65.5088 37.4643 66.1121 38.8728 67.3175 39.9384C68.5229 41.0039 70.1367 41.6178 72.158 41.7803L73.6883 41.9158C74.9305 42.0242 75.8303 42.268 76.3868 42.6471C76.9428 43.0083 77.2211 43.5049 77.2211 44.1369C77.2211 44.4274 77.1722 44.6999 77.0746 44.9544C77.0021 45.1434 76.9024 45.3224 76.7764 45.4915C76.4787 45.8705 76.0435 46.1684 75.4686 46.3855C74.8937 46.602 74.1797 46.7103 73.3261 46.7103C72.3806 46.7103 71.6109 46.5841 71.0177 46.3309C70.4239 46.0602 69.9792 45.708 69.6815 45.2749C69.4038 44.8412 69.2652 44.3718 69.2652 43.8661H64.8416C64.8416 45.1483 65.166 46.2861 65.8149 47.279C66.4643 48.2544 67.4193 49.0312 68.6809 49.6088Z" fill="#81818B"/>
<path d="M98.5581 50.1233C97.0183 50.1233 95.7761 49.943 94.8301 49.5815C93.884 49.2025 93.1889 48.5792 92.7437 47.7125C92.3174 46.8275 92.1037 45.6359 92.1037 44.1368V38.2587H89.7948V35.0895H92.1037V31.0806H96.2486V35.0895H100.7V38.2587H96.2486V44.2996C96.2486 45.0038 96.4345 45.5455 96.8051 45.9245C97.1947 46.286 97.7417 46.4664 98.4468 46.4664H100.7V50.1233H98.5581Z" fill="#81818B"/>
<path fill-rule="evenodd" clip-rule="evenodd" d="M106.059 49.7984C107.06 50.2316 108.211 50.4486 109.509 50.4486C110.788 50.4486 111.92 50.2316 112.903 49.7984C113.885 49.3648 114.702 48.7599 115.351 47.9836C116 47.2068 116.436 46.3218 116.658 45.3289H112.569C112.383 45.7804 112.031 46.1594 111.512 46.4663C110.993 46.7733 110.324 46.9272 109.509 46.9272C109.003 46.9272 108.551 46.8686 108.154 46.7522C107.851 46.6637 107.579 46.5415 107.339 46.3854C106.782 46.0243 106.374 45.5182 106.114 44.8683C106.043 44.6832 105.981 44.4895 105.929 44.2878C105.876 44.0834 105.834 43.8708 105.802 43.6494H116.936V42.1865C116.936 40.8321 116.64 39.5861 116.046 38.4485C115.453 37.2925 114.59 36.3625 113.459 35.6583C112.346 34.9359 110.974 34.5747 109.342 34.5747C108.099 34.5747 106.986 34.7915 106.003 35.2249C105.039 35.6402 104.232 36.209 103.583 36.9314C102.935 37.6537 102.434 38.4756 102.08 39.3966C101.747 40.2993 101.58 41.2474 101.58 42.2407V42.7824C101.58 43.7397 101.747 44.6786 102.08 45.5997C102.434 46.5026 102.935 47.3241 103.583 48.0646C104.251 48.7872 105.075 49.3648 106.059 49.7984ZM105.878 40.9708C105.89 40.9135 105.903 40.857 105.918 40.8014C105.956 40.6483 106.001 40.5015 106.051 40.3613C106.08 40.2814 106.11 40.2035 106.143 40.1278C106.421 39.4596 106.829 38.954 107.367 38.611C107.568 38.4827 107.786 38.3784 108.019 38.2982C108.413 38.1636 108.854 38.0963 109.342 38.0963C110.102 38.0963 110.732 38.2679 111.233 38.611C111.752 38.9359 112.142 39.4145 112.402 40.0465C112.423 40.0975 112.443 40.1495 112.462 40.202C112.493 40.2858 112.522 40.3717 112.548 40.4598C112.587 40.5909 112.621 40.7266 112.652 40.8668C112.674 40.9702 112.693 41.076 112.709 41.1844H105.835C105.848 41.112 105.862 41.0409 105.878 40.9708Z" fill="#81818B"/>
<path d="M118.773 49.9341V35.0896H122.306V38.8283C122.354 38.606 122.409 38.3927 122.47 38.1882C122.522 38.0158 122.578 37.8497 122.64 37.69C123.029 36.6786 123.614 35.9203 124.392 35.4146C125.171 34.8909 126.126 34.6292 127.258 34.6292H127.453C128.603 34.6292 129.557 34.8909 130.318 35.4146C131.097 35.9203 131.681 36.6786 132.07 37.69L132.101 37.7663L132.128 37.8362C132.145 37.7869 132.163 37.7382 132.182 37.69C132.59 36.6786 133.183 35.9203 133.962 35.4146C134.741 34.8909 135.697 34.6292 136.828 34.6292H137.023C138.172 34.6292 139.136 34.8909 139.915 35.4146C140.713 35.9203 141.316 36.6786 141.724 37.69C142.131 38.7014 142.336 39.9655 142.336 41.4824V49.9341H137.885V41.2385C137.885 40.4259 137.662 39.7668 137.217 39.2612C136.791 38.7554 136.179 38.5027 135.382 38.5027C134.584 38.5027 133.953 38.7646 133.489 39.2883C133.026 39.7938 132.794 40.471 132.794 41.3199V49.9341H128.315V41.2385C128.315 40.4259 128.092 39.7668 127.647 39.2612C127.221 38.7554 126.618 38.5027 125.84 38.5027C125.023 38.5027 124.383 38.7646 123.92 39.2883C123.456 39.7938 123.224 40.471 123.224 41.3199V49.9341H118.773Z" fill="#81818B"/>
<path fill-rule="evenodd" clip-rule="evenodd" d="M154.226 47.0736V49.9341H157.759V40.8322C157.759 39.4597 157.48 38.3402 156.924 37.4732C156.367 36.5883 155.552 35.9293 154.476 35.4959C153.42 35.0625 152.112 34.8457 150.554 34.8457C150.216 34.8457 149.864 34.8492 149.496 34.8564C149.279 34.8608 149.056 34.8662 148.829 34.8728C148.217 34.8909 147.623 34.9179 147.049 34.9541L146.609 34.9829C146.383 34.9982 146.172 35.0132 145.972 35.0285C145.823 35.0398 145.681 35.0512 145.547 35.0625V38.7195C146.122 38.6832 146.761 38.6471 147.466 38.6111C147.663 38.601 147.858 38.5916 148.052 38.5829C148.332 38.5703 148.608 38.5593 148.882 38.5498C149.098 38.5421 149.312 38.5353 149.525 38.5297C150.192 38.5116 150.73 38.5026 151.138 38.5026C151.954 38.5026 152.547 38.6922 152.919 39.0715C153.289 39.4507 153.475 40.0196 153.475 40.7782V40.8322H150.721C149.367 40.8322 148.171 41.0038 147.132 41.347C146.093 41.672 145.286 42.1866 144.712 42.8909C144.136 43.5773 143.849 44.4621 143.849 45.5456C143.849 46.5389 144.081 47.3967 144.544 48.1193C145.009 48.8231 145.648 49.3649 146.464 49.7439C147.299 50.1234 148.264 50.3131 149.357 50.3131C150.414 50.3131 151.305 50.1234 152.028 49.7439C152.77 49.3649 153.345 48.8231 153.753 48.1193C153.825 48.0003 153.892 47.8772 153.954 47.7493C154.042 47.5685 154.121 47.3783 154.19 47.1787L154.226 47.0736ZM153.475 44.4351V43.2431H150.693C149.914 43.2431 149.311 43.4327 148.885 43.812C148.477 44.1732 148.272 44.6698 148.272 45.3018C148.272 45.5993 148.323 45.8696 148.425 46.1134C148.527 46.3577 148.68 46.5747 148.885 46.7644C149.311 47.126 149.914 47.3063 150.693 47.3063C150.841 47.3063 150.985 47.2991 151.123 47.2853C151.236 47.2736 151.346 47.2571 151.452 47.236C151.656 47.1958 151.848 47.1376 152.028 47.0624C152.436 46.8821 152.77 46.5841 153.029 46.1684C153.289 45.7532 153.438 45.1751 153.475 44.4351Z" fill="#81818B"/>
<path d="M160.422 49.934V35.0894H163.956V39.9891C164.125 38.5904 164.552 37.4626 165.235 36.6064C166.163 35.4687 167.497 34.8999 169.241 34.8999H169.826V38.638H168.713C167.489 38.638 166.543 38.9629 165.875 39.6131C165.207 40.2452 164.873 41.1663 164.873 42.376V49.934H160.422Z" fill="#81818B"/>
<path d="M175.47 42.9991H176.944L181.757 49.934H186.764L180.662 41.4173L185.679 35.0894H181.006L175.47 42.1477V30.1594H171.019V49.934H175.47V42.9991Z" fill="#81818B"/>
</svg>
