<svg width="211" height="65" viewBox="0 0 211 65" fill="none" xmlns="http://www.w3.org/2000/svg">
<path d="M71.1715 30.8005C72.7591 30.8005 74.133 31.0561 75.2938 31.5671C76.4714 32.0782 77.3754 32.8036 78.007 33.7433C78.6386 34.683 78.9546 35.7958 78.9546 37.0817C78.9546 38.3511 78.6386 39.4639 78.007 40.4202C77.3754 41.3599 76.4714 42.0853 75.2938 42.5965C74.133 43.0908 72.7591 43.3382 71.1715 43.3382H67.5621V48.111H63.4152V30.8005H71.1715ZM70.9416 40.0739C72.1869 40.0739 73.1345 39.8184 73.7829 39.3073C74.4318 38.7797 74.7557 38.0379 74.7557 37.0817C74.7557 36.109 74.4318 35.3671 73.7829 34.8561C73.1345 34.3285 72.1869 34.0648 70.9416 34.0648H67.5621V40.0739H70.9416Z" fill="#81818B"/>
<path d="M84.1684 36.5622C84.6456 35.9193 85.2861 35.4329 86.0878 35.1032C86.9073 34.7734 87.8455 34.6086 88.9039 34.6086V38.1696C88.4603 38.1366 88.1616 38.1202 88.0077 38.1202C86.8643 38.1202 85.9686 38.4334 85.3203 39.0599C84.6714 39.6698 84.3469 40.5931 84.3469 41.8294V48.1109H80.3538V34.8065H84.1684V36.5622Z" fill="#81818B"/>
<path d="M96.4272 48.3084C94.9766 48.3084 93.6709 48.0202 92.5107 47.443C91.3672 46.8496 90.4711 46.0333 89.8227 44.9947C89.1743 43.9561 88.8499 42.7773 88.8499 41.4586C88.8499 40.1397 89.1743 38.9609 89.8227 37.9223C90.4711 36.8837 91.3672 36.0759 92.5107 35.4989C93.6709 34.9054 94.9766 34.6086 96.4272 34.6086C97.8778 34.6086 99.175 34.9054 100.318 35.4989C101.462 36.0759 102.358 36.8837 103.007 37.9223C103.655 38.9609 103.979 40.1397 103.979 41.4586C103.979 42.7773 103.655 43.9561 103.007 44.9947C102.358 46.0333 101.462 46.8496 100.318 47.443C99.175 48.0202 97.8778 48.3084 96.4272 48.3084ZM96.4272 45.1431C97.4515 45.1431 98.2878 44.8137 98.9362 44.154C99.6019 43.4782 99.9342 42.5798 99.9342 41.4586C99.9342 40.3375 99.6019 39.4473 98.9362 38.7878C98.2878 38.1119 97.4515 37.7739 96.4272 37.7739C95.4034 37.7739 94.5587 38.1119 93.893 38.7878C93.2273 39.4473 92.8945 40.3375 92.8945 41.4586C92.8945 42.5798 93.2273 43.4782 93.893 44.154C94.5587 44.8137 95.4034 45.1431 96.4272 45.1431Z" fill="#81818B"/>
<path d="M122.086 30.8005V48.111H118.681L109.746 37.601V48.111H105.65V30.8005H109.081L117.99 41.3104V30.8005H122.086Z" fill="#81818B"/>
<path d="M130.32 34.6086C132.453 34.6086 134.091 35.1032 135.235 36.0924C136.378 37.0651 136.95 38.5406 136.95 40.5189V48.1109H133.212V46.4538C132.462 47.6903 131.062 48.3084 129.014 48.3084C127.955 48.3084 127.034 48.1356 126.249 47.7893C125.481 47.443 124.892 46.9651 124.483 46.3549C124.073 45.745 123.868 45.0524 123.868 44.2777C123.868 43.0412 124.346 42.0686 125.302 41.3597C126.274 40.6508 127.768 40.2963 129.782 40.2963H132.956C132.956 39.4555 132.692 38.8126 132.162 38.3674C131.633 37.9058 130.84 37.675 129.782 37.675C129.048 37.675 128.322 37.7904 127.606 38.0213C126.906 38.2356 126.309 38.5323 125.813 38.9115L124.38 36.216C125.131 35.7049 126.027 35.3093 127.068 35.029C128.126 34.7488 129.21 34.6086 130.32 34.6086ZM130.012 45.7121C130.695 45.7121 131.301 45.5637 131.829 45.2668C132.359 44.9535 132.734 44.5003 132.956 43.9066V42.5469H130.217C128.579 42.5469 127.759 43.0659 127.759 44.1045C127.759 44.5993 127.955 44.9947 128.348 45.2916C128.758 45.5719 129.312 45.7121 130.012 45.7121Z" fill="#81818B"/>
<path d="M148.167 47.4678C147.775 47.7481 147.289 47.9625 146.708 48.1109C146.145 48.2425 145.548 48.3084 144.916 48.3084C143.278 48.3084 142.007 47.9048 141.102 47.0971C140.214 46.289 139.771 45.102 139.771 43.536V38.0708H137.646V35.1033H139.771V31.8638H143.764V35.1033H147.195V38.0708H143.764V43.4865C143.764 44.0469 143.909 44.4839 144.199 44.7972C144.507 45.0937 144.933 45.2421 145.479 45.2421C146.111 45.2421 146.649 45.0772 147.092 44.7478L148.167 47.4678Z" fill="#81818B"/>
<path d="M163.005 34.8066V48.111H159.216V46.5282C158.687 47.105 158.055 47.5503 157.321 47.8637C156.587 48.1605 155.794 48.3085 154.94 48.3085C153.131 48.3085 151.698 47.806 150.64 46.8003C149.581 45.7947 149.053 44.3026 149.053 42.3244V34.8066H153.046V41.7554C153.046 43.8985 153.977 44.9701 155.837 44.9701C156.792 44.9701 157.561 44.6737 158.141 44.0799C158.72 43.4701 159.011 42.5718 159.011 41.3846V34.8066H163.005Z" fill="#81818B"/>
<path d="M169.239 36.5622C169.717 35.9193 170.357 35.4329 171.159 35.1032C171.978 34.7734 172.917 34.6086 173.975 34.6086V38.1696C173.531 38.1366 173.232 38.1202 173.079 38.1202C171.935 38.1202 171.04 38.4334 170.391 39.0599C169.742 39.6698 169.418 40.5931 169.418 41.8294V48.1109H165.425V34.8065H169.239V36.5622Z" fill="#81818B"/>
<path d="M188.436 41.5082C188.436 41.5573 188.411 41.9036 188.359 42.5469H177.94C178.128 43.371 178.571 44.0221 179.271 44.5003C179.971 44.9782 180.841 45.2173 181.882 45.2173C182.599 45.2173 183.231 45.1184 183.777 44.9205C184.34 44.7065 184.861 44.3766 185.338 43.9313L187.463 46.157C186.166 47.5914 184.272 48.3084 181.779 48.3084C180.227 48.3084 178.853 48.0202 177.658 47.443C176.463 46.8496 175.542 46.0333 174.893 44.9947C174.245 43.9561 173.921 42.7773 173.921 41.4586C173.921 40.1562 174.236 38.9857 174.868 37.9471C175.516 36.8919 176.395 36.0759 177.504 35.4989C178.631 34.9054 179.885 34.6086 181.268 34.6086C182.616 34.6086 183.836 34.8889 184.929 35.4494C186.021 36.0099 186.874 36.8177 187.489 37.8729C188.12 38.9115 188.436 40.1232 188.436 41.5082ZM181.293 37.5266C180.389 37.5266 179.629 37.7739 179.015 38.2685C178.401 38.7631 178.025 39.4391 177.889 40.2963H184.673C184.536 39.4555 184.16 38.7878 183.546 38.2933C182.932 37.7822 182.181 37.5266 181.293 37.5266Z" fill="#81818B"/>
<path fill-rule="evenodd" clip-rule="evenodd" d="M40.6712 21.1603C40.0628 20.8203 39.3125 20.8203 38.704 21.1603C34.382 23.5754 31.4669 28.094 31.4669 33.2726C31.4669 34.0106 31.5262 34.7353 31.6402 35.4424C28.665 34.4664 25.4435 34.8215 22.8122 36.2861C22.2031 36.6252 21.828 37.2528 21.8286 37.9318C21.8317 41.5142 23.7583 45.0057 27.2086 46.9298C28.9013 47.874 30.7488 48.3226 32.5712 48.3234C32.2939 49.0825 32.143 49.8989 32.143 50.7494C32.143 54.7744 35.5208 58.0367 39.6873 58.0367C43.8541 58.0367 47.2316 54.7744 47.2316 50.7494C47.2316 49.8968 47.0801 49.0788 46.8018 48.3185C48.5155 48.2661 50.2416 47.8167 51.8311 46.9298C55.2818 45.0057 57.208 41.5142 57.2106 37.932C57.2117 37.2529 56.8363 36.6253 56.2273 36.2863C53.6999 34.8793 50.6274 34.4962 47.7523 35.3334C47.8552 34.6609 47.9081 33.9728 47.9081 33.2726C47.9081 28.094 44.9933 23.5754 40.6712 21.1603ZM35.3957 33.2726C35.3957 29.9097 37.0813 26.9254 39.6876 25.0678C42.294 26.9254 43.9796 29.9097 43.9796 33.2726C43.9796 36.6354 42.294 39.6197 39.6876 41.4772C37.0813 39.6197 35.3957 36.6354 35.3957 33.2726ZM47.4348 39.5745C49.2488 38.5627 51.345 38.4451 53.176 39.0852C52.8347 40.9371 51.6808 42.6316 49.8668 43.6434C48.0528 44.6552 45.9567 44.7727 44.1256 44.1328C44.467 42.2807 45.6207 40.5862 47.4348 39.5745ZM25.8637 39.0851C27.6947 38.4449 29.7908 38.5626 31.6049 39.5744C33.419 40.586 34.5725 42.2807 34.9141 44.1324C33.083 44.7727 30.987 44.6552 29.1729 43.6434C27.3589 42.6316 26.2053 40.937 25.8637 39.0851ZM36.0718 50.7494C36.0718 48.8207 37.6905 47.2568 39.6873 47.2568C41.6842 47.2568 43.3031 48.8207 43.3031 50.7494C43.3031 52.6782 41.6842 54.242 39.6873 54.242C37.6905 54.242 36.0718 52.6782 36.0718 50.7494Z" fill="#81818B"/>
</svg>
