<svg width="211" height="65" viewBox="0 0 211 65" fill="none" xmlns="http://www.w3.org/2000/svg">
<path d="M75.8098 51.8315C73.4531 51.8315 71.3699 51.3566 69.5602 50.4078C67.75 49.437 66.3509 48.0672 65.3618 46.2988C64.3732 44.53 63.8787 42.4486 63.8787 40.0544C63.8787 37.6601 64.3732 35.5787 65.3618 33.8101C66.3509 32.0198 67.75 30.6501 69.5602 29.701C71.3699 28.7304 73.4531 28.2451 75.8098 28.2451C77.4095 28.2451 78.8191 28.4177 80.0397 28.7628C81.2814 29.0863 82.4175 29.604 83.4486 30.3158V35.0071C82.523 34.2306 81.4604 33.6698 80.2608 33.3247C79.0821 32.958 77.7355 32.7747 76.2204 32.7747C74.8107 32.7747 73.5371 33.0767 72.401 33.6806C71.2859 34.263 70.4018 35.1042 69.7497 36.2042C69.0972 37.3043 68.7711 38.5876 68.7711 40.0544C68.7711 41.5427 69.0657 42.8476 69.6547 43.9692C70.2653 45.0693 71.1174 45.9213 72.2115 46.5252C73.3056 47.1292 74.5687 47.4311 75.9993 47.4311C77.304 47.4311 78.4401 47.1939 79.4082 46.7193V42.3515H75.8413V38.7278H84.0481V49.6312C81.9649 51.0979 79.2192 51.8315 75.8098 51.8315Z" fill="#81818B"/>
<path d="M85.1564 35.816H89.7648V38.0485C90.3754 37.2935 91.2275 36.7219 92.3216 36.3337C93.4157 35.9238 94.6578 35.719 96.0464 35.719V39.4397C94.5943 39.4397 93.3107 39.6662 92.1956 40.1191C91.1009 40.5721 90.3434 41.2623 89.9229 42.1898V51.3461H85.1564V35.816Z" fill="#81818B"/>
<path d="M105.206 51.8316C102.302 51.8316 100.019 51.1195 98.3564 49.6958C96.6937 48.2511 95.8627 46.2342 95.8627 43.6458C95.8627 41.079 96.5992 39.0515 98.0724 37.5633C99.5665 36.0749 101.692 35.3308 104.449 35.3308C106.258 35.3308 107.794 35.6759 109.057 36.3661C110.319 37.0563 111.277 38.0162 111.929 39.2456C112.582 40.4535 112.908 41.8232 112.908 43.3546V45.3282H100.408C100.745 47.3127 102.554 48.305 105.837 48.305C106.805 48.305 107.805 48.2187 108.836 48.0459C109.867 47.8734 110.762 47.6361 111.519 47.3342V50.764C110.783 51.0871 109.836 51.3462 108.678 51.5405C107.521 51.7342 106.363 51.8316 105.206 51.8316ZM108.394 42.1575C108.331 41.1222 107.952 40.3241 107.258 39.7633C106.563 39.181 105.606 38.8897 104.385 38.8897C103.186 38.8897 102.239 39.181 101.544 39.7633C100.85 40.3457 100.471 41.1438 100.408 42.1575H108.394Z" fill="#81818B"/>
<path d="M122.678 51.8316C119.774 51.8316 117.491 51.1195 115.828 49.6958C114.166 48.2511 113.334 46.2342 113.334 43.6458C113.334 41.079 114.071 39.0515 115.544 37.5633C117.038 36.0749 119.163 35.3308 121.92 35.3308C123.73 35.3308 125.266 35.6759 126.529 36.3661C127.791 37.0563 128.749 38.0162 129.401 39.2456C130.053 40.4535 130.379 41.8232 130.379 43.3546V45.3282H117.88C118.216 47.3127 120.026 48.305 123.309 48.305C124.277 48.305 125.277 48.2187 126.308 48.0459C127.339 47.8734 128.233 47.6361 128.991 47.3342V50.764C128.254 51.0871 127.308 51.3462 126.15 51.5405C124.992 51.7342 123.835 51.8316 122.678 51.8316ZM125.866 42.1575C125.802 41.1222 125.424 40.3241 124.73 39.7633C124.035 39.181 123.078 38.8897 121.857 38.8897C120.657 38.8897 119.711 39.181 119.016 39.7633C118.322 40.3457 117.943 41.1438 117.88 42.1575H125.866Z" fill="#81818B"/>
<path d="M131.438 35.8161H136.046V37.725C136.741 36.927 137.561 36.3338 138.508 35.9455C139.476 35.5357 140.486 35.3308 141.538 35.3308C143.601 35.3308 145.137 35.9024 146.147 37.0456C147.178 38.1672 147.694 39.6878 147.694 41.6075V51.3462H142.927V42.1575C142.927 40.1516 142.022 39.1486 140.212 39.1486C139.413 39.1486 138.666 39.3535 137.971 39.7633C137.277 40.1516 136.688 40.734 136.204 41.5104V51.3462H131.438V35.8161Z" fill="#81818B"/>
<path d="M151.899 33.422C151.162 33.422 150.542 33.174 150.037 32.6779C149.531 32.1818 149.279 31.5563 149.279 30.8013C149.279 30.068 149.531 29.4533 150.037 28.9571C150.542 28.4395 151.162 28.1807 151.899 28.1807C152.635 28.1807 153.256 28.4395 153.761 28.9571C154.266 29.4533 154.519 30.068 154.519 30.8013C154.519 31.5563 154.266 32.1818 153.761 32.6779C153.256 33.174 152.635 33.422 151.899 33.422ZM149.5 35.8162H154.298V51.3463H149.5V35.8162Z" fill="#81818B"/>
<path d="M162.427 51.8316C161.291 51.8316 160.07 51.7018 158.766 51.4431C157.482 51.2059 156.472 50.8608 155.735 50.4079V46.5901C156.577 47.1077 157.587 47.5283 158.766 47.8518C159.944 48.1752 161.038 48.337 162.048 48.337C162.911 48.337 163.543 48.2616 163.942 48.1108C164.342 47.9597 164.542 47.6793 164.542 47.2695C164.542 46.946 164.426 46.6871 164.195 46.493C163.963 46.2773 163.605 46.0939 163.122 45.943C162.658 45.7704 161.879 45.5224 160.785 45.1988C159.502 44.8106 158.492 44.4223 157.756 44.0341C157.04 43.6242 156.493 43.1174 156.114 42.5134C155.756 41.9095 155.577 41.1329 155.577 40.1839C155.577 38.5662 156.198 37.3583 157.44 36.5603C158.702 35.7406 160.407 35.3308 162.553 35.3308C163.605 35.3308 164.689 35.4494 165.804 35.6867C166.94 35.9024 167.814 36.1936 168.425 36.5603V40.281C167.814 39.8712 167.014 39.5368 166.025 39.278C165.058 39.0192 164.111 38.8897 163.185 38.8897C162.321 38.8897 161.648 38.976 161.164 39.1486C160.702 39.3212 160.47 39.6447 160.47 40.1192C160.47 40.529 160.691 40.8418 161.133 41.0575C161.595 41.2732 162.448 41.5428 163.69 41.8664L164.321 42.0281C165.647 42.3948 166.677 42.8046 167.414 43.2576C168.151 43.689 168.666 44.2174 168.961 44.8429C169.277 45.4469 169.435 46.2126 169.435 47.1401C169.435 48.5637 168.835 49.7068 167.635 50.5697C166.436 51.4107 164.7 51.8316 162.427 51.8316Z" fill="#81818B"/>
<path d="M170.536 27.4363H175.303V37.5955C176.018 36.8405 176.828 36.2797 177.733 35.9131C178.638 35.5248 179.606 35.3307 180.637 35.3307C182.699 35.3307 184.235 35.9023 185.246 37.0455C186.277 38.1671 186.792 39.6877 186.792 41.6074V51.3461H182.026V42.1574C182.026 40.1515 181.121 39.1485 179.312 39.1485C178.511 39.1485 177.765 39.3534 177.07 39.7632C176.376 40.1515 175.787 40.7338 175.303 41.5103V51.3461H170.536V27.4363Z" fill="#81818B"/>
<path fill-rule="evenodd" clip-rule="evenodd" d="M47.6005 32.0142C47.6005 36.124 44.3503 39.4556 40.3408 39.4556C36.3312 39.4556 33.0808 36.124 33.0808 32.0142C33.0808 27.9044 36.3312 24.5728 40.3408 24.5728C44.3503 24.5728 47.6005 27.9044 47.6005 32.0142ZM23.4535 38.9148C31.3631 38.3683 38.2565 44.4383 38.8986 52.5628C38.9651 53.4045 38.9619 54.2356 38.894 55.0504C30.9844 55.5969 24.091 49.5268 23.4489 41.4024C23.3824 40.5606 23.3856 39.7293 23.4535 38.9148ZM44.0116 54.7659C51.9378 54.1075 57.8595 47.042 57.3267 38.9348C56.5318 38.8651 55.7212 38.8618 54.8996 38.93C46.9733 39.5882 41.0515 46.6539 41.5846 54.7611C42.3793 54.831 43.1902 54.8341 44.0116 54.7659Z" fill="#81818B"/>
</svg>
