<svg width="183" height="65" viewBox="0 0 183 65" fill="none" xmlns="http://www.w3.org/2000/svg">
<path fill-rule="evenodd" clip-rule="evenodd" d="M29.5187 31.2361C32.259 27.7339 36.6472 25.4649 41.5931 25.4649C46.5681 25.4649 50.9787 27.7606 53.7157 31.298C53.5992 31.4118 53.4931 31.5298 53.3971 31.6476C52.8957 32.2645 52.5185 33.059 52.2163 33.8659C51.6077 35.4887 51.1435 37.6085 50.7137 39.5935L50.6755 39.7719C50.2467 41.7533 49.8481 43.5959 49.3662 44.9638C49.1497 45.5783 48.9443 46.0128 48.7623 46.291C48.5723 46.0105 48.3567 45.5708 48.1285 44.9475C47.6131 43.5403 47.1795 41.6263 46.72 39.5827L46.7051 39.5157V39.5157C46.2635 37.5527 45.795 35.4699 45.2109 33.8756C44.9175 33.0747 44.5574 32.2881 44.0865 31.6769C43.6244 31.0772 42.855 30.4003 41.7298 30.4003C40.6117 30.4003 39.8389 31.0698 39.37 31.6629C38.89 32.2701 38.5158 33.0534 38.2075 33.8547C37.5866 35.4682 37.0791 37.5789 36.6067 39.5666L36.5579 39.7719C36.0901 41.7409 35.6529 43.5818 35.1565 44.9523C34.967 45.4757 34.7882 45.8739 34.6263 46.1583C34.4681 45.8752 34.2938 45.4797 34.1095 44.9607C33.6333 43.6194 33.2161 41.8301 32.7681 39.9083L32.6897 39.5719C32.2254 37.583 31.7218 35.4685 31.0921 33.85C30.7793 33.0457 30.3966 32.2584 29.9014 31.6484C29.7893 31.5103 29.6619 31.3701 29.5187 31.2361ZM27.8601 33.9253C27.9906 34.1701 28.1287 34.4736 28.2715 34.8406C28.8165 36.2416 29.2783 38.1533 29.7537 40.1905L29.8463 40.5875C30.2792 42.4464 30.7296 44.38 31.26 45.8739C31.5422 46.6684 31.8829 47.4466 32.321 48.0514C32.7354 48.6235 33.4788 49.3623 34.6219 49.3623C35.7617 49.3623 36.5068 48.627 36.924 48.0576C37.366 47.4542 37.7123 46.6769 38.0001 45.8818C38.5519 44.3584 39.0217 42.3794 39.4713 40.4855V40.4854L39.5401 40.1959C40.0245 38.1574 40.4908 36.2419 41.0319 34.8358C41.2825 34.1843 41.5172 33.7305 41.7215 33.449C41.9151 33.7281 42.1363 34.1747 42.3709 34.815C42.8865 36.2222 43.3196 38.1361 43.7792 40.1798L43.7943 40.2467C44.2358 42.2098 44.7043 44.2926 45.2883 45.8867C45.5818 46.6879 45.9419 47.4745 46.4128 48.0855C46.875 48.6854 47.6443 49.3623 48.7692 49.3623C49.9003 49.3623 50.6667 48.6792 51.1234 48.074C51.5872 47.4599 51.936 46.6707 52.2177 45.8708C52.7592 44.3344 53.1897 42.3408 53.6002 40.4444V40.4443L53.659 40.169C54.1011 38.1278 54.5253 36.2214 55.0492 34.8246C55.1626 34.5208 55.2745 34.2617 55.381 34.0441C56.1838 35.7921 56.629 37.7223 56.629 39.7513C56.629 47.6413 49.8975 54.0377 41.5931 54.0377C33.289 54.0377 26.5571 47.6413 26.5571 39.7513C26.5571 37.6762 27.0227 35.7044 27.8601 33.9253ZM41.5931 22.6077C31.6282 22.6077 23.5499 30.2831 23.5499 39.7513C23.5499 49.2194 31.6282 56.8948 41.5931 56.8948C51.5584 56.8948 59.6362 49.2194 59.6362 39.7513C59.6362 30.2831 51.5584 22.6077 41.5931 22.6077ZM41.9369 33.2098C41.9369 33.2101 41.9334 33.2128 41.9263 33.2167C41.9333 33.2114 41.9369 33.2095 41.9369 33.2098ZM41.5213 33.2117C41.5143 33.2077 41.5108 33.2049 41.5108 33.2045C41.5108 33.2042 41.5143 33.2062 41.5213 33.2117ZM48.5406 46.5623C48.5406 46.5623 48.5439 46.5592 48.5504 46.5552C48.5439 46.5605 48.5406 46.5627 48.5406 46.5623ZM48.9778 46.5508C48.9848 46.5548 48.9885 46.5574 48.9885 46.5579C48.9885 46.5583 48.9848 46.5561 48.9778 46.5508ZM34.3137 46.5879C34.3137 46.5875 34.318 46.5835 34.3267 46.5778C34.3181 46.5853 34.3137 46.5884 34.3137 46.5879ZM34.9227 46.5804C34.9313 46.5862 34.9357 46.5901 34.9357 46.5906C34.9356 46.591 34.9312 46.5884 34.9227 46.5804Z" fill="#81818B"/>
<path d="M69.5991 49.9008L65.2238 35.6802H69.0563L71.6513 45.9155L74.6685 35.6802H78.9536L81.9713 45.9155L84.5963 35.6802H88.4288L84.023 49.9008H80.0099L76.811 39.264L73.6127 49.9008H69.5991Z" fill="#81818B"/>
<path d="M94.0521 50.2448C92.7648 50.2448 91.7085 50.0532 90.8837 49.671C90.0594 49.2697 89.4457 48.7441 89.043 48.0942C88.6409 47.4443 88.4398 46.7276 88.4398 45.944C88.4398 44.6252 88.9827 43.5548 90.0689 42.7329C91.1551 41.911 92.7852 41.5001 94.9577 41.5001H98.7598V41.156C98.7598 40.1812 98.4678 39.4645 97.8846 39.0057C97.3013 38.547 96.5768 38.3177 95.7121 38.3177C94.9272 38.3177 94.2432 38.4992 93.6599 38.8624C93.0766 39.2064 92.7144 39.7225 92.5737 40.4106H88.8015C88.9023 39.3785 89.2646 38.4801 89.8878 37.7156C90.5319 36.951 91.3567 36.368 92.3621 35.9667C93.3685 35.5462 94.4947 35.3359 95.7421 35.3359C97.8746 35.3359 99.5541 35.8424 100.782 36.8554C102.008 37.8685 102.622 39.3021 102.622 41.156V49.9006H99.3325L98.9708 47.6071C98.5282 48.3716 97.9045 49.0021 97.1002 49.4993C96.3153 49.9961 95.2995 50.2448 94.0521 50.2448ZM94.9272 47.3775C96.0339 47.3775 96.8886 47.0333 97.4919 46.3453C98.1156 45.6574 98.5083 44.8066 98.6694 43.7937H95.3798C94.3539 43.7937 93.62 43.9753 93.1769 44.3384C92.7348 44.6823 92.5133 45.1128 92.5133 45.6286C92.5133 46.183 92.7348 46.613 93.1769 46.9187C93.62 47.2244 94.2027 47.3775 94.9272 47.3775Z" fill="#81818B"/>
<path d="M108.702 49.9008L103.211 35.6802H107.254L111.056 46.4318L114.858 35.6802H118.901L113.379 49.9008H108.702Z" fill="#81818B"/>
<path d="M126.666 50.2448C125.157 50.2448 123.819 49.9387 122.652 49.3272C121.486 48.7154 120.571 47.8553 119.907 46.7466C119.243 45.6383 118.911 44.3575 118.911 42.9049C118.911 41.4332 119.233 40.1239 119.876 38.9771C120.54 37.8303 121.445 36.9415 122.593 36.3107C123.759 35.6609 125.127 35.3359 126.696 35.3359C128.164 35.3359 129.462 35.6418 130.589 36.2534C131.715 36.865 132.591 37.706 133.214 38.7764C133.857 39.8276 134.18 41.0031 134.18 42.3028C134.18 42.5131 134.169 42.7329 134.149 42.9622C134.149 43.1917 134.139 43.4305 134.119 43.679H122.743C122.824 44.7876 123.226 45.6574 123.95 46.2883C124.694 46.9187 125.59 47.2342 126.636 47.2342C127.42 47.2342 128.074 47.0718 128.597 46.7466C129.14 46.4028 129.543 45.9631 129.804 45.4278H133.727C133.445 46.3263 132.972 47.1483 132.309 47.8938C131.665 48.6198 130.86 49.1932 129.894 49.6139C128.949 50.0342 127.872 50.2448 126.666 50.2448ZM126.696 38.3177C125.751 38.3177 124.916 38.5757 124.191 39.0917C123.467 39.5887 123.005 40.3533 122.803 41.3854H130.257C130.196 40.4488 129.834 39.7034 129.17 39.1491C128.506 38.5948 127.682 38.3177 126.696 38.3177Z" fill="#81818B"/>
<path d="M136.221 49.9007V29.2578H140.083V49.9007H136.221Z" fill="#81818B"/>
<path d="M150.095 50.2448C148.586 50.2448 147.249 49.9387 146.082 49.3272C144.915 48.7154 144 47.8553 143.336 46.7466C142.672 45.6383 142.34 44.3575 142.34 42.9049C142.34 41.4332 142.662 40.1239 143.305 38.9771C143.97 37.8303 144.875 36.9415 146.022 36.3107C147.188 35.6609 148.556 35.3359 150.125 35.3359C151.594 35.3359 152.891 35.6418 154.018 36.2534C155.144 36.865 156.02 37.706 156.643 38.7764C157.287 39.8276 157.609 41.0031 157.609 42.3028C157.609 42.5131 157.599 42.7329 157.579 42.9622C157.579 43.1917 157.568 43.4305 157.548 43.679H146.172C146.253 44.7876 146.655 45.6574 147.379 46.2883C148.123 46.9187 149.019 47.2342 150.065 47.2342C150.849 47.2342 151.503 47.0718 152.026 46.7466C152.57 46.4028 152.972 45.9631 153.233 45.4278H157.156C156.875 46.3263 156.402 47.1483 155.738 47.8938C155.094 48.6198 154.289 49.1932 153.323 49.6139C152.378 50.0342 151.302 50.2448 150.095 50.2448ZM150.125 38.3177C149.18 38.3177 148.345 38.5757 147.62 39.0917C146.896 39.5887 146.434 40.3533 146.232 41.3854H153.686C153.625 40.4488 153.264 39.7034 152.599 39.1491C151.935 38.5948 151.111 38.3177 150.125 38.3177Z" fill="#81818B"/>
<path d="M165.836 50.2448C164.509 50.2448 163.342 50.0439 162.336 49.6427C161.33 49.2219 160.525 48.6486 159.922 47.9221C159.318 47.1961 158.956 46.3551 158.835 45.3995H162.728C162.849 45.9533 163.171 46.4316 163.694 46.8329C164.237 47.2151 164.931 47.4063 165.775 47.4063C166.621 47.4063 167.234 47.2439 167.616 46.9187C168.019 46.594 168.22 46.221 168.22 45.8007C168.22 45.1889 167.938 44.7779 167.375 44.5677C166.812 44.3384 166.027 44.1187 165.021 43.9084C164.378 43.7746 163.724 43.6121 163.06 43.421C162.396 43.2299 161.783 42.9909 161.219 42.7043C160.676 42.3984 160.234 42.0161 159.891 41.5574C159.549 41.0795 159.379 40.4966 159.379 39.8085C159.379 38.547 159.902 37.4862 160.948 36.6261C162.014 35.766 163.502 35.3359 165.414 35.3359C167.184 35.3359 168.592 35.7277 169.638 36.5114C170.704 37.2951 171.338 38.375 171.539 39.7512H167.888C167.666 38.6999 166.832 38.1743 165.384 38.1743C164.659 38.1743 164.096 38.3081 163.694 38.5757C163.312 38.8433 163.121 39.1777 163.121 39.5791C163.121 39.9997 163.412 40.3342 163.996 40.5826C164.579 40.8311 165.353 41.0604 166.319 41.2707C167.365 41.5001 168.32 41.7581 169.185 42.0448C170.07 42.3124 170.774 42.7234 171.298 43.2777C171.821 43.8128 172.082 44.5868 172.082 45.5998C172.103 46.4794 171.861 47.2722 171.358 47.9796C170.855 48.6866 170.131 49.2409 169.185 49.6427C168.24 50.0439 167.124 50.2448 165.836 50.2448Z" fill="#81818B"/>
<path d="M180.483 50.2448C179.155 50.2448 177.988 50.0439 176.983 49.6427C175.977 49.2219 175.172 48.6486 174.569 47.9221C173.965 47.1961 173.603 46.3551 173.482 45.3995H177.375C177.496 45.9533 177.817 46.4316 178.34 46.8329C178.884 47.2151 179.577 47.4063 180.422 47.4063C181.267 47.4063 181.881 47.2439 182.263 46.9187C182.665 46.594 182.867 46.221 182.867 45.8007C182.867 45.1889 182.585 44.7779 182.022 44.5677C181.459 44.3384 180.674 44.1187 179.668 43.9084C179.024 43.7746 178.371 43.6121 177.707 43.421C177.043 43.2299 176.429 42.9909 175.866 42.7043C175.323 42.3984 174.88 42.0161 174.538 41.5574C174.196 41.0795 174.025 40.4966 174.025 39.8085C174.025 38.547 174.549 37.4862 175.595 36.6261C176.661 35.766 178.149 35.3359 180.06 35.3359C181.83 35.3359 183.238 35.7277 184.285 36.5114C185.351 37.2951 185.984 38.375 186.186 39.7512H182.534C182.313 38.6999 181.479 38.1743 180.03 38.1743C179.306 38.1743 178.742 38.3081 178.34 38.5757C177.958 38.8433 177.767 39.1777 177.767 39.5791C177.767 39.9997 178.058 40.3342 178.642 40.5826C179.225 40.8311 180 41.0604 180.965 41.2707C182.012 41.5001 182.967 41.7581 183.832 42.0448C184.717 42.3124 185.421 42.7234 185.944 43.2777C186.467 43.8128 186.729 44.5868 186.729 45.5998C186.749 46.4794 186.508 47.2722 186.005 47.9796C185.502 48.6866 184.778 49.2409 183.832 49.6427C182.887 50.0439 181.77 50.2448 180.483 50.2448Z" fill="#81818B"/>
</svg>
